<?xml version="1.0" standalone="no"?>
<!DOCTYPE svg PUBLIC "-//W3C//DTD SVG 20010904//EN"
 "http://www.w3.org/TR/2001/REC-SVG-20010904/DTD/svg10.dtd">
<svg version="1.0" xmlns="http://www.w3.org/2000/svg"
 width="1024.000000pt" height="1024.000000pt" viewBox="0 0 1024.000000 1024.000000"
 preserveAspectRatio="xMidYMid meet">

<g transform="translate(0.000000,1024.000000) scale(0.100000,-0.100000)"
fill="#000000" stroke="none">
<path d="M2285 6480 c-79 -31 -149 -99 -191 -186 l-35 -74 -272 0 c-380 0
-441 -13 -545 -117 -64 -64 -108 -153 -122 -248 -13 -91 -13 -1078 0 -1168 17
-118 48 -166 199 -320 233 -237 236 -237 679 -245 l322 -5 32 -59 c61 -114
160 -178 288 -186 95 -5 169 21 235 81 171 159 177 426 13 591 -73 72 -145
100 -249 94 -130 -8 -231 -77 -295 -203 l-30 -60 -305 0 -304 0 -73 47 c-39
26 -72 52 -72 57 0 11 604 606 639 629 21 14 51 16 195 14 107 -2 175 -7 184
-14 7 -7 24 -32 37 -57 30 -59 86 -112 155 -148 48 -25 66 -28 145 -28 107 0
163 22 235 95 111 110 140 293 69 433 -32 61 -106 134 -168 164 -48 24 -68 28
-141 28 -70 0 -94 -4 -135 -24 -66 -33 -121 -85 -157 -147 l-29 -53 -207 -3
c-200 -3 -209 -4 -264 -30 -47 -22 -114 -83 -388 -353 -183 -179 -337 -324
-343 -322 -7 2 -18 21 -26 43 -21 61 -7 1113 16 1158 22 44 43 65 85 87 34 17
62 19 320 19 l283 0 35 -56 c38 -61 90 -108 160 -145 39 -21 59 -24 145 -24
111 0 148 13 232 82 65 52 115 161 121 262 10 167 -67 304 -212 378 -70 36
-189 42 -261 13z m189 -210 c53 -26 88 -77 94 -140 13 -134 -121 -229 -237
-168 -62 32 -84 66 -89 137 -4 52 -1 67 23 107 45 77 130 103 209 64z m514
-900 c70 -43 95 -147 52 -218 -79 -130 -280 -74 -280 78 0 124 127 202 228
140z m-250 -967 c47 -35 65 -70 70 -132 8 -110 -55 -186 -154 -186 -115 0
-186 116 -139 228 18 43 62 96 89 108 32 13 105 4 134 -18z"/>
<path d="M5190 5650 l0 -420 69 0 70 0 3 204 c3 201 3 205 27 230 53 56 140
56 192 0 23 -25 24 -30 27 -230 l3 -204 70 0 69 0 0 208 c0 114 -5 224 -11
245 -13 49 -63 105 -114 128 -78 36 -213 14 -247 -40 -7 -12 -15 -21 -18 -21
-3 0 -3 72 -1 160 l3 160 -71 0 -71 0 0 -420z"/>
<path d="M7140 5650 l0 -420 70 0 70 0 0 420 0 420 -70 0 -69 0 -1 -420z"/>
<path d="M3450 5975 l0 -65 115 0 115 0 0 -340 0 -340 73 0 72 0 -3 340 -3
340 115 0 116 0 0 65 0 65 -300 0 -300 0 0 -65z"/>
<path d="M4147 5816 c-100 -36 -155 -98 -183 -206 -31 -123 1 -244 86 -324 55
-52 98 -66 195 -66 78 0 141 23 188 68 27 26 62 81 55 87 -2 1 -27 10 -56 20
l-54 17 -39 -38 c-37 -36 -44 -39 -99 -39 -54 0 -62 3 -94 34 -33 32 -64 96
-53 107 3 3 96 6 208 7 l204 2 -2 69 c-3 82 -33 156 -87 209 -60 60 -181 84
-269 53z m151 -116 c32 -19 81 -104 68 -117 -3 -3 -66 -2 -140 3 l-135 9 19
42 c34 77 119 105 188 63z"/>
<path d="M4756 5814 c-66 -21 -137 -93 -162 -165 -27 -77 -25 -198 5 -263 33
-75 65 -111 123 -140 42 -21 66 -26 127 -26 134 1 216 61 255 188 7 21 5 22
-63 22 -60 0 -70 -3 -76 -20 -11 -34 -63 -70 -102 -70 -94 0 -143 62 -143 181
0 86 24 145 69 172 60 35 145 10 170 -52 13 -31 14 -31 70 -25 85 9 84 8 66
51 -53 127 -201 191 -339 147z"/>
<path d="M6042 5809 c-24 -12 -49 -30 -55 -40 -17 -27 -24 -23 -19 11 l4 30
-64 0 -65 0 -6 -157 c-4 -87 -7 -218 -7 -290 l0 -133 69 0 70 0 3 205 3 205
31 31 c56 56 147 45 198 -24 18 -25 21 -46 24 -223 l4 -195 67 3 66 3 0 215
c0 209 -1 216 -25 265 -38 75 -92 109 -183 113 -59 2 -80 -1 -115 -19z"/>
<path d="M6631 5808 c-61 -23 -120 -78 -152 -140 -17 -32 -24 -66 -27 -131 -4
-83 -3 -91 27 -152 56 -112 142 -165 270 -165 156 0 277 122 288 290 16 220
-199 378 -406 298z m191 -124 c70 -36 100 -170 56 -253 -33 -64 -68 -86 -133
-86 -90 0 -143 54 -152 153 -6 68 13 136 47 167 47 43 120 50 182 19z"/>
<path d="M7554 5814 c-146 -54 -224 -248 -163 -409 43 -114 146 -185 269 -185
114 0 208 57 265 161 27 49 30 63 30 144 -1 74 -5 98 -24 135 -30 58 -85 116
-136 143 -52 27 -182 33 -241 11z m198 -135 c45 -32 62 -75 63 -154 0 -116
-53 -180 -148 -180 -99 0 -151 62 -151 180 0 57 4 78 23 109 46 73 144 94 213
45z"/>
<path d="M8181 5804 c-100 -50 -147 -152 -139 -303 5 -99 34 -168 92 -218 47
-42 95 -56 181 -51 65 3 78 7 114 36 l41 33 0 -57 c0 -75 -26 -117 -85 -140
-73 -27 -187 -1 -221 52 l-15 22 -50 -30 c-27 -17 -49 -34 -49 -39 0 -33 103
-106 175 -123 45 -11 171 -8 215 5 57 17 113 70 141 131 23 52 24 60 27 371
l3 317 -45 2 c-25 1 -54 2 -63 2 -15 1 -17 -6 -15 -39 l4 -40 -34 32 c-72 69
-183 84 -277 37z m226 -124 c54 -32 68 -64 68 -151 0 -63 -4 -83 -21 -105 -70
-94 -195 -96 -249 -4 -27 47 -29 173 -2 213 27 42 75 67 127 67 27 0 58 -8 77
-20z"/>
<path d="M9132 5800 c-3 -8 -14 -37 -25 -65 -10 -27 -39 -106 -63 -175 -24
-69 -47 -132 -50 -140 -3 -8 -15 13 -28 50 -12 36 -47 127 -76 203 l-54 137
-73 0 c-40 0 -73 -2 -73 -5 0 -3 50 -130 111 -282 l111 -277 -46 -116 c-25
-63 -48 -123 -52 -133 -6 -16 0 -18 67 -15 l73 3 69 170 c99 246 257 648 257
654 0 3 -32 6 -71 6 -55 0 -73 -3 -77 -15z"/>
<path d="M6205 4995 c-35 -34 -33 -78 5 -117 27 -27 36 -30 71 -25 72 9 105
66 75 125 -18 35 -33 42 -87 42 -29 0 -47 -7 -64 -25z"/>
<path d="M4870 4590 l0 -420 70 0 70 0 0 420 0 420 -70 0 -70 0 0 -420z"/>
<path d="M3670 4960 c-86 -40 -128 -102 -131 -192 -4 -129 51 -186 248 -252
153 -52 183 -72 183 -125 0 -64 -54 -101 -145 -101 -74 0 -128 29 -153 82 -16
34 -20 38 -58 38 -23 0 -56 -3 -73 -6 -27 -6 -30 -9 -25 -33 12 -48 57 -121
92 -147 61 -47 122 -64 230 -64 81 0 105 4 148 24 117 54 168 195 112 306 -30
59 -99 100 -247 146 -127 40 -171 71 -171 121 0 118 206 139 271 28 23 -38 13
-37 124 -20 19 3 35 10 35 16 0 19 -48 104 -72 126 -56 51 -107 68 -218 71
-89 2 -112 -1 -150 -18z"/>
<path d="M5873 4912 l-63 -3 0 -79 0 -80 -44 0 -44 0 1 -60 2 -60 43 0 42 0 0
-172 c0 -195 8 -224 69 -265 28 -19 48 -23 112 -23 42 0 84 3 93 6 17 6 22 66
10 111 -5 18 -10 20 -31 12 -45 -17 -81 -11 -99 16 -13 20 -18 58 -22 170 l-5
145 81 0 80 0 4 56 c1 31 1 58 -1 60 -2 2 -37 4 -78 4 l-73 0 0 79 c0 44 -3
81 -7 83 -5 2 -36 2 -70 0z"/>
<path d="M6642 4755 c-206 -64 -275 -339 -127 -503 60 -66 127 -95 221 -95
173 -1 289 125 289 309 -1 206 -191 349 -383 289z m168 -138 c52 -35 74 -80
74 -156 1 -107 -49 -170 -141 -178 -65 -6 -111 20 -140 77 -45 87 -20 218 49
260 46 28 115 27 158 -3z"/>
<path d="M7357 4759 c-20 -6 -51 -24 -68 -40 -17 -16 -32 -29 -33 -29 -2 0 -1
14 2 30 l4 30 -64 0 -65 0 -6 -127 c-4 -71 -7 -201 -7 -290 l0 -163 69 0 70 0
3 201 3 201 37 34 c45 40 94 45 145 14 53 -32 57 -48 61 -257 l4 -193 69 0 69
0 0 203 c0 212 -6 253 -43 308 -45 67 -161 102 -250 78z"/>
<path d="M4389 4747 c-96 -36 -157 -99 -184 -190 -44 -150 18 -307 147 -371
43 -22 66 -26 132 -26 131 0 217 54 268 165 32 72 32 200 -2 269 -30 62 -81
113 -139 139 -58 25 -172 33 -222 14z m190 -142 c44 -41 54 -74 50 -164 -4
-68 -8 -83 -29 -106 -90 -96 -227 -62 -261 65 -23 86 8 180 73 221 48 30 128
22 167 -16z"/>
<path d="M7888 4750 c-54 -16 -100 -53 -119 -94 -38 -85 -15 -168 58 -204 21
-10 79 -29 128 -41 107 -26 135 -42 135 -76 0 -84 -154 -99 -216 -21 -26 32
-27 33 -82 24 -31 -5 -58 -11 -60 -13 -12 -12 15 -64 51 -101 85 -85 253 -98
359 -29 93 62 103 215 17 277 -14 11 -77 32 -140 48 -129 33 -161 55 -136 94
18 28 55 46 92 46 34 0 89 -30 106 -58 10 -16 19 -17 58 -11 25 4 52 8 59 8
21 1 -23 75 -64 109 -56 46 -168 66 -246 42z"/>
<path d="M5130 4533 c0 -234 6 -265 59 -320 75 -78 231 -78 297 0 l27 32 -7
-37 -7 -38 71 0 70 0 0 290 0 290 -70 0 -70 0 0 -192 c-1 -209 -4 -224 -56
-259 -39 -25 -84 -24 -125 4 -50 34 -58 68 -58 270 l-1 177 -65 0 -65 0 0
-217z"/>
<path d="M6210 4460 l0 -290 65 0 65 0 0 290 0 290 -65 0 -65 0 0 -290z"/>
</g>
</svg>
