<?xml version="1.0"?>
<svg width="190" height="100" xmlns="http://www.w3.org/2000/svg" xmlns:svg="http://www.w3.org/2000/svg">
 <defs>
  <linearGradient id="aiFace" x1="0%" x2="100%" y1="0%" y2="100%">
   <stop offset="0%" stop-color="#e3f2fd"/>
   <stop offset="100%" stop-color="#bbdefb"/>
  </linearGradient>
  <linearGradient id="pulseGlow" x1="0%" x2="100%" y1="0%" y2="100%">
   <stop offset="0%" stop-color="#42a5f5"/>
   <stop offset="50%" stop-color="#90caf9"/>
   <stop offset="100%" stop-color="#42a5f5"/>
  </linearGradient>
 </defs>
 <!-- Ícone à esquerda -->
 <!-- Iniciais MAS em vermelho SENAI na vertical -->
 <!-- Texto completo empilhado ao lado das iniciais -->
 <g class="layer">
  <title>Layer 1</title>
  <g id="svg_1" transform="translate(45 50)">
   <!-- Cabeça do robô -->
   <path d="m-30,-20l18,-6l24,0l18,6l0,32l-18,14l-24,0l-18,-14l0,-32z" fill="url(#aiFace)" id="svg_2" stroke="#0d47a1" stroke-width="2"/>
   <!-- Olhos -->
   <circle cx="-12" cy="-8" fill="#1565c0" id="svg_3" r="5"/>
   <circle cx="12" cy="-8" fill="#1565c0" id="svg_4" r="5"/>
   <!-- Pupilas -->
   <circle cx="-12" cy="-8" fill="#e3f2fd" id="svg_5" r="2"/>
   <circle cx="12" cy="-8" fill="#e3f2fd" id="svg_6" r="2"/>
   <!-- Checkmark -->
   <path d="m-8,3l8,5l8,-5" fill="none" id="svg_7" stroke="url(#pulseGlow)" stroke-linecap="round" stroke-linejoin="round" stroke-width="4"/>
   <!-- Boca -->
   <path d="m-12,14l12,4l12,-4" fill="none" id="svg_8" stroke="#0d47a1" stroke-linecap="round" stroke-width="2"/>
  </g>
  <text fill="#E30613" font-family="Arial, sans-serif" font-size="22" font-weight="bold" id="svg_9" letter-spacing="-1" text-anchor="start" x="80" y="32">M</text>
  <text fill="#E30613" font-family="Arial, sans-serif" font-size="22" font-weight="bold" id="svg_10" letter-spacing="-1" text-anchor="start" x="80" y="55">A</text>
  <text fill="#E30613" font-family="Arial, sans-serif" font-size="22" font-weight="bold" id="svg_11" letter-spacing="-1" text-anchor="start" x="80" y="78">S</text>
  <text fill="#0d47a1" font-family="Arial, sans-serif" font-size="16" font-weight="bold" id="svg_12" letter-spacing="-0.5" text-anchor="start" x="98" y="32">OTOR</text>
  <text fill="#0d47a1" font-family="Arial, sans-serif" font-size="16" font-weight="bold" id="svg_13" letter-spacing="-0.5" text-anchor="start" x="98" y="55">VALIATIVO</text>
  <text fill="#0d47a1" font-family="Arial, sans-serif" font-size="16" font-weight="bold" id="svg_14" letter-spacing="-0.5" text-anchor="start" x="98" y="78">MART</text>
 </g>
</svg>